# Alias OBJ Model File
# Exported from SketchUp, (c) 2000-2012 Trimble Navigation Limited
# File units = meters

mtllib Rat.mtl

g Mesh1 Geoset_0_1 Model

usemtl Material_1
v 0.341564 0.214587 0.0370032
vt 0.932735 1.01355
vn 0.413608 0.618224 -0.668377
v 0.362385 0.183151 0.035201
vt 1.0036 0.98395
vn 0.79151 0.540588 -0.28509
v 0.364852 0.162853 0.00356315
vt 1.00551 0.888417
f 1/1/1 2/2/2 3/3/1

v 0.334273 0.181041 0.0175907
vt 0.919645 0.946283
vn -0.0866169 0.513022 -0.853994
f 3/3/1 4/4/3 1/1/1

g Mesh2 Geoset_0_1 Model

v 0.341405 0.214478 -0.0691618
vt 0.201216 0.446939
vn -0.791511 -0.540587 -0.285088
v 0.362226 0.183043 -0.0673596
vt 0.171633 0.318598
v 0.364694 0.162745 -0.0357218
vt 0.26583 0.251131
f 5/5/4 6/6/4 7/7/4

g Mesh3 Geoset_0_1 Model

v 0.364782 0.162748 -0.0357787
vn 0.0891037 -0.512096 -0.854294
v 0.33429 0.180938 -0.0498631
vt 0.29636 0.365908
v 0.341493 0.214481 -0.0692188
f 8/7/5 9/8/5 10/5/5

g Mesh4 Geoset_0_1 Model

v 0.341564 0.214587 -0.0691048
vn 0.413609 0.618224 0.668376
v 0.364852 0.162853 -0.0356648
v 0.362385 0.183151 -0.0673026
vn 0.791511 0.540587 0.285088
f 11/1/6 12/3/6 13/2/7

v 0.334273 0.181041 -0.0496923
vn -0.0866165 0.513022 0.853994
f 12/3/6 11/1/6 14/4/8

g Mesh5 Geoset_0_1 Model

v 0.341405 0.214478 0.0370602
vn -0.79151 -0.540588 0.28509
v 0.364694 0.162745 0.00362017
v 0.362226 0.183043 0.035258
f 15/5/9 16/7/9 17/6/9

g Mesh6 Geoset_0_1 Model

v 0.364782 0.162748 0.00367709
vn 0.0891041 -0.512096 0.854294
v 0.341493 0.214481 0.0371171
v 0.33429 0.180938 0.0177615
f 18/7/10 19/5/10 20/8/10

g Mesh7 Geoset_0_1 Model

v 0.446197 0.0672616 -0.0288241
vt 0.549672 0.0615157
vn 0.579719 -0.390645 -0.715068
v 0.444268 0.0417867 -0.0164716
vt 0.638969 0.00453037
v 0.440337 0.0483403 -0.0257113
vt 0.615156 0.0515935
vn 0.762929 -0.327941 -0.55713
f 21/9/11 22/10/11 23/11/12

v 0.459947 0.0538242 -0.015885
vt 0.543719 0.00315164
vn 0.36031 -0.428956 -0.828356
f 24/12/13 22/10/11 21/9/11

g Mesh8 Geoset_0_1 Model

v 0.414871 0.137149 0.0389853
vt 0.733599 0.320866
vn 0.245026 0.0679874 0.96713
v 0.419829 0.164155 -0.015802
vt 0.703082 0.451431
vn 0.53251 0.846424 -1.9172e-006
v 0.334661 0.164271 0.0321608
vt 1.01109 0.412972
vn 0.205057 0.587304 0.78296
f 25/13/14 26/14/15 27/15/16

v 0.469843 0.0898787 0.00870927
vt 0.564862 0.26817
vn 0.546309 -0.017913 0.837392
f 26/14/15 25/13/14 28/16/17

v 0.403629 0.0759981 0.00447231
vt 0.734219 0.148828
vn -0.140781 -0.831818 0.536897
f 28/16/17 25/13/14 29/17/18

v 0.334333 0.0914347 0.015523
vt 1.00608 0.146844
vn 0.486424 -0.446868 0.7508
f 25/13/14 30/18/19 29/17/18

f 25/13/14 27/15/16 30/18/19

vt 0.0132212 0.910147
v 0.240332 0.116502 0.0701524
vt 0.268886 0.763679
vn 0.0968488 0.0226188 0.995042
vt 0.0157764 0.779148
f 27/19/16 31/20/20 30/21/19

v 0.253593 0.211363 -0.0158018
vt 0.20999 1.00227
vn 0.205583 0.978639 0.00081973
f 27/19/16 32/22/21 31/20/20

v 0.336942 0.18577 -0.015802
vt 0.0113579 1.00564
vn 0.273008 0.962012 8.28742e-008
f 27/19/16 33/23/22 32/22/21

vt 1.01221 0.479835
f 27/15/16 26/14/15 33/24/22

v 0.334661 0.164271 -0.0637646
vn 0.206258 0.587813 -0.782262
f 33/24/22 26/14/15 34/15/23

v 0.414871 0.13715 -0.0705885
vt 0.7336 0.320866
vn 0.245037 0.0679987 -0.967126
f 26/14/15 35/25/24 34/15/23

v 0.469843 0.0898787 -0.0403132
vn 0.546307 -0.0179121 -0.837393
f 26/14/15 36/16/25 35/25/24

v 0.489216 0.0882115 -0.0158019
vt 0.480291 0.229617
vn 0.975901 -0.218212 6.4263e-007
f 26/14/15 37/26/26 36/16/25

f 26/14/15 28/16/17 37/26/26

v 0.459946 0.0646243 0.000485357
vt 0.575469 0.168672
vn 0.357084 -0.619269 0.699283
f 28/16/17 38/27/27 37/26/26

f 28/16/17 29/17/18 38/27/27

v 0.459932 0.053769 -0.015802
vt 0.561578 0.0813593
vn 0.201737 -0.97944 -4.8838e-007
f 29/17/18 39/28/28 38/27/27

v 0.403629 0.075998 -0.0360763
vt 0.780305 0.0112471
vn -0.121058 -0.774543 -0.620828
f 29/17/18 40/29/29 39/28/28

v 0.334326 0.09143 -0.0471274
vt 1.00806 0.0138907
vn 0.422177 -0.572449 -0.7029
f 29/17/18 41/30/30 40/29/29

f 30/18/19 41/30/30 29/17/18

vt 0.48491 0.265248
v 0.314597 0.0597351 -0.0158019
vt 0.469178 0.419931
vn 0.580077 -0.814562 -0.000164562
vt 0.640424 0.454633
f 30/31/19 42/32/31 41/33/30

v 0.294869 0.0453636 0.0530651
vt 0.11004 0.544302
vn 0.553072 -0.816123 0.167492
vt 0.0138867 0.470324
f 30/21/19 43/34/32 42/35/31

v 0.268517 0.041196 0.0729
vt 0.164157 0.700547
vn 0.123276 0.0391689 0.991599
f 30/21/19 44/36/33 43/34/32

f 30/21/19 31/20/20 44/36/33

v 0.25578 0.04112 0.0458212
vt 0.239727 0.554528
vn -0.680944 -0.686214 0.255786
f 31/20/20 45/37/34 44/36/33

v 0.221828 0.0511113 -0.0158018
vt 0.292106 0.458557
vn 0.040316 -0.999187 0.000499803
f 31/20/20 46/38/35 45/37/34

v 0.180861 0.0627158 0.0499699
vt 0.427139 0.539434
vn 0.10855 -0.787768 0.606332
f 31/20/20 47/39/36 46/38/35

v 0.163567 0.134643 0.100159
vt 0.447477 0.762424
vn 0.447514 -0.0321175 0.8937
f 31/20/20 48/40/37 47/39/36

v 0.147785 0.250312 -0.0158018
vt 0.491226 1.00988
vn 0.275528 0.961279 0.00514416
f 48/40/37 31/20/20 49/41/38

f 32/22/21 49/41/38 31/20/20

v 0.240332 0.116502 -0.102254
vn 0.0983633 0.0239966 -0.994861
f 32/22/21 50/20/39 49/41/38

vt 0.0133604 0.902983
f 34/42/23 50/20/39 32/22/21

f 34/42/23 41/21/30 50/20/39

f 35/25/24 41/18/30 34/15/23

f 35/25/24 40/17/29 41/18/30

f 36/16/25 40/17/29 35/25/24

v 0.459946 0.0646243 -0.0320892
vn 0.357085 -0.61927 -0.699282
f 36/16/25 51/27/40 40/17/29

f 36/16/25 37/26/26 51/27/40

f 37/26/26 39/28/28 51/27/40

f 37/26/26 38/27/27 39/28/28

f 39/28/28 40/17/29 51/27/40

v 0.268517 0.0411962 -0.105002
vn 0.124015 0.044675 -0.991274
f 41/21/30 52/36/41 50/20/39

v 0.294869 0.0453636 -0.0851666
vn 0.554039 -0.815217 -0.168707
f 41/21/30 53/34/42 52/36/41

f 41/21/30 42/35/31 53/34/42

f 46/38/35 53/34/42 42/35/31

v 0.25578 0.04112 -0.0779226
vn -0.681382 -0.685905 -0.255446
f 46/38/35 54/37/43 53/34/42

f 50/20/39 54/37/43 46/38/35

f 50/20/39 52/36/41 54/37/43

v 0.180861 0.0627157 -0.0820712
vn 0.112318 -0.788221 -0.605056
f 46/38/35 55/39/44 50/20/39

v 0.155155 0.0320973 -0.0158017
vt 0.468675 0.458364
vn 0.0645408 -0.997913 0.00204942
f 56/43/45 55/39/44 46/38/35

v 0.0502946 0.0493761 -0.016948
vt 0.736978 0.485875
vn -0.298371 -0.95445 0.000368026
f 56/43/45 57/44/46 55/39/44

f 47/39/36 57/44/46 56/43/45

f 47/39/36 48/40/37 57/44/46

v 0.137298 0.0750256 0.113465
vt 0.649485 0.651784
vn 0.546246 -0.632902 0.54868
vn 0.0602281 -0.997957 -0.021304
f 48/40/37 58/45/47 57/44/48

v 0.0811277 0.144801 0.126826
vt 0.664146 0.787503
vn -0.159716 0.238601 0.957894
f 48/40/37 59/46/49 58/45/47

f 59/46/49 48/40/37 49/41/38

v 0.00470862 0.229049 -0.00806116
vt 0.808237 1.00487
vn -0.685959 0.727479 -0.0152945
f 59/46/49 49/41/38 60/47/50

v 0.0811789 0.144595 -0.159471
vn -0.170147 0.251959 -0.952663
f 60/47/50 49/41/38 61/46/51

v 0.16349 0.134741 -0.132149
vn 0.451296 -0.0314196 -0.891821
f 49/41/38 62/40/52 61/46/51

f 49/41/38 50/20/39 62/40/52

f 50/20/39 55/39/44 62/40/52

f 55/39/44 57/44/46 62/40/52

v 0.137496 0.0749573 -0.145096
vn 0.550277 -0.635043 -0.54214
f 62/40/52 57/44/48 63/45/53

v 0.065936 0.0453748 -0.125646
vt 0.733518 0.636844
vn 0.0793082 -0.882312 -0.463935
f 57/44/48 64/48/54 63/45/53

v 0.0366303 0.0473926 -0.0996696
vt 0.776484 0.612628
vn -0.403141 -0.531557 0.744932
f 57/44/48 65/49/55 64/48/54

v -0.00808953 0.107911 -0.103693
vt 0.918342 0.658481
vn -0.776747 -0.324944 -0.539515
f 66/50/56 65/49/55 57/44/48

v 0.026827 0.0495094 -0.117701
vt 0.782321 0.656992
vn -0.622667 -0.331923 -0.708599
f 66/50/56 67/51/57 65/49/55

f 61/46/51 67/51/57 66/50/56

f 61/46/51 64/48/54 67/51/57

f 63/45/53 64/48/54 61/46/51

f 62/40/52 63/45/53 61/46/51

vt 0.315516 0.357188
v 0.0297156 0.0326165 -0.106274
vt 0.347266 0.281781
vn -0.217891 -0.213541 -0.952325
vt 0.381334 0.374441
f 64/52/54 68/53/58 67/54/57

vt 0.382403 0.37418
vn 0.839215 -0.0189641 0.543469
f 64/52/54 65/55/55 68/53/59

v 0.0243294 0.0338896 -0.0881016
vt 0.408781 0.289719
vn 0.957085 -0.0425732 0.286662
f 65/55/55 69/56/60 68/53/59

vn -0.80863 -0.0806928 0.582757
vt 0.380287 0.374174
v 0.0123377 0.0350739 -0.104203
vt 0.454422 0.291703
vn -0.705929 0.464829 0.534414
f 69/56/61 65/57/55 70/58/62

vt 0.446484 0.390922
f 65/57/55 67/59/57 70/58/62

vn -0.146015 -0.219651 -0.964589
f 68/53/58 70/56/63 67/54/57

v 0.0260698 0.00948326 -0.10984
vt 0.375047 0.15875
vn -0.313761 0.377979 -0.871026
f 68/53/58 71/60/64 70/56/63

v 0.0514604 0.0222934 -0.115669
vt 0.296777 0.220731
vn -0.100399 0.992704 -0.0667748
f 72/61/65 71/60/64 68/53/58

v 0.0885194 0.00933486 -0.166036
vt 0.137709 0.153491
vn -0.280057 0.761546 -0.584479
f 71/60/64 72/61/65 73/62/66

v 0.10228 0.0306076 -0.142493
vt 0.142875 0.263922
vn 0.0866405 0.988757 -0.121877
f 72/61/65 74/63/67 73/62/66

v 0.119643 0.00931781 -0.110192
vt 0.136937 0.15415
vn 0.249949 0.856606 0.451388
f 75/64/68 74/63/67 72/61/65

v 0.148522 0.00933668 -0.162023
vt 0.00967334 0.154127
vn 0.319743 0.91635 -0.24097
f 75/64/68 76/65/69 74/63/67

vt 0.134938 0.28575
vn 0.00258019 -0.999995 -0.00174322
vt 0.0154381 0.322053
vn -0.00562396 -0.999949 -0.0084439
vt 0.0218277 0.186531
vn 5.27692e-005 -1 -0.0003346
f 75/66/70 73/67/71 76/68/72

v 0.0378359 0.00884407 -0.0924578
vt 0.192484 0.436563
vn -0.285776 -0.942574 0.172879
f 77/69/73 73/67/71 75/66/70

vt 0.127 0.452438
vn -0.557613 -0.747257 0.361489
f 77/69/73 71/70/74 73/67/71

vt 0.453478 0.152692
f 69/56/61 71/71/74 77/60/73

f 70/58/62 71/71/74 69/56/61

vn 0.552708 0.657564 0.511981
f 69/56/60 77/60/75 68/53/59

f 72/61/65 68/53/59 77/60/75

f 77/60/75 75/64/68 72/61/65

f 74/63/67 76/65/69 73/62/66

f 61/46/51 66/50/56 60/47/50

v -0.0476485 0.103222 -0.0667399
vt 1.0053 0.630159
vn -0.507437 -0.0407423 -0.860725
f 60/47/50 66/50/56 78/72/76

v -0.0454951 0.0708099 -0.036154
vt 1.00561 0.527091
vn -0.300875 -0.944135 -0.134471
f 66/50/56 79/73/77 78/72/76

f 57/44/48 79/73/77 66/50/56

v -0.0196505 0.0990226 0.0662285
vn -0.781184 -0.46032 0.421732
f 80/50/78 79/73/77 57/44/48

v -0.0528559 0.092912 0.00144748
vn -0.517441 -0.286728 0.806252
f 80/50/78 81/72/79 79/73/77

f 60/47/50 81/72/79 80/50/78

v -0.0600547 0.13296 -0.0278681
vt 0.976387 0.868495
vn -0.499752 0.861409 0.090676
f 60/47/50 82/74/80 81/72/79

f 60/47/50 78/72/76 82/74/80

vt -0.00110251 0.15792
vt -0.0132768 0.08835
v -0.110042 0.0967582 -0.0472468
vt 0.0648746 0.078766
vn -0.21254 0.0586362 -0.975392
f 82/75/80 78/76/76 83/77/81

vt 0.0011725 0.0706324
v -0.108415 0.0737302 -0.0265904
vt 0.0869401 -0.00548388
vn -0.0399983 -0.991786 -0.121494
vt 0.0779162 0.058261
f 78/78/76 84/79/82 83/80/81

vt 0.00638641 0.00854233
vt 0.0820583 0.0124653
vt 0.00159813 0.0722012
f 79/81/77 84/82/82 78/83/76

vt 0.0119163 0.07092
vt 0.0846398 0.0134863
vt 0.0100081 0.00774206
f 81/84/79 84/85/82 79/86/77

vt 0.0118648 0.0730833
v -0.113632 0.090481 -0.00151203
vt 0.0876192 0.0668947
vn -0.00391885 -0.1549 0.987922
vt 0.0788999 0.00382875
f 81/87/79 85/88/83 84/89/82

vt 0.0116716 0.0711234
vt 0.0141318 0.146492
vt 0.0880865 0.0680142
f 81/90/79 82/91/80 85/92/83

vt 0.0174686 0.139
v -0.118102 0.114605 -0.0217405
vt 0.0938524 0.0996157
vn -0.16972 0.977261 0.12711
vt 0.0971125 0.0287653
f 82/93/80 86/94/84 85/95/83

vt 0.0699918 0.135819
vt -0.00245782 0.175917
vt 0.0539756 0.0731117
f 86/96/84 82/97/80 83/98/81

vt 0.250479 0.136018
vt 0.248506 0.0672302
v -0.234689 0.0858556 -0.0352046
vt 0.399617 0.055337
vn -0.231438 0.467558 -0.853127
f 86/99/84 83/100/81 87/101/85

vt 0.251781 0.0719125
v -0.230273 0.0667434 -0.0179635
vt 0.401748 -0.00292721
vn 0.0414853 -0.992199 -0.117556
vt 0.401615 0.060794
f 83/102/81 88/103/86 87/104/85

vt 0.251448 0.00819926
vt 0.399775 0.00215489
vt 0.251764 0.0719372
f 84/105/82 88/106/86 83/107/81

vt 0.252195 0.0662275
vt 0.399459 -0.00490751
vt 0.250269 0.00300697
f 85/108/83 88/109/86 84/110/82

v -0.227671 0.0811689 0.00319565
vt 0.395337 0.0491263
vn 0.131954 0.250529 0.959074
vt 0.393911 -0.0148228
vt 0.251261 0.062763
f 89/111/87 88/112/86 85/113/83

v -0.396114 0.0663506 0.0522375
vt 0.256814 0.0728075
vn 0.337363 -0.32189 0.884632
vt 0.012036 0.0077627
vt 0.0118456 0.0715428
f 90/114/88 88/115/86 89/116/87

vt 0.256826 0.0749507
v -0.400129 0.0550611 0.0363387
vt 0.253888 0.0110122
vn 0.040353 -0.992655 -0.11405
vt 0.0120443 0.00987877
f 90/117/88 91/118/89 88/119/86

v -0.513416 0.0521761 0.103074
vt 0.467834 0.0713628
vn 0.322456 -0.0700844 0.943986
vt 0.251663 0.00762205
vt 0.252132 0.0713628
f 92/120/90 91/121/89 90/122/88

v -0.51833 0.0414415 0.093049
vt 0.467856 0.0076596
vn -0.109009 -0.992825 -0.0491564
f 92/120/90 93/123/91 91/121/89

v -0.545948 0.0494885 0.107789
vt 0.541234 0.0713628
vn -0.899016 0.0345222 0.436552
f 94/124/92 93/123/91 92/120/90

v -0.522275 0.0539787 0.0850469
vn -0.5547 0.104353 -0.82548
f 93/123/91 94/124/92 95/120/93

v -0.520042 0.0623129 0.0959845
vt 0.467769 0.137237
vn -0.213591 0.956848 0.197028
f 94/124/92 96/125/94 95/120/93

f 92/120/90 96/125/94 94/124/92

v -0.401795 0.0808116 0.0396245
vt 0.252132 0.141206
vn -0.0780631 0.98709 0.139856
f 97/126/95 96/125/94 92/120/90

f 96/125/94 97/126/95 95/120/93

v -0.405959 0.0694139 0.0232394
vn -0.367807 -0.138837 -0.919479
f 95/120/93 97/126/95 98/122/96

vt 0.254868 0.148386
vt 0.0120792 0.0771415
vt 0.252429 0.0783424
f 97/127/95 87/128/85 98/129/96

vt 0.254802 0.143058
v -0.231949 0.0992652 -0.0136882
vt 0.0121641 0.148029
vn -0.0928946 0.985417 0.142561
vt 0.0120323 0.0722215
f 97/130/95 99/131/97 87/132/85

vt 0.0117414 0.0718876
vt 0.0118947 0.147678
vt 0.25462 0.142492
f 89/133/87 99/134/97 97/135/95

vt 0.252716 0.139178
vt 0.398559 0.118548
vt 0.398253 0.052741
f 86/136/84 99/137/97 89/138/87

vt 0.391296 0.0984612
vt 0.24769 0.125708
vt 0.388792 0.0322404
f 99/139/97 86/140/84 87/141/85

vt 0.252201 0.0705303
vt 0.252427 0.14034
vt 0.39752 0.0617569
f 85/142/83 86/143/84 89/144/87

vt 0.0117997 0.0708118
vt 0.254679 0.141393
vt 0.256816 0.0711601
f 89/145/87 97/146/95 90/147/88

f 90/122/88 97/126/95 92/120/90

vt 0.0119959 0.00758444
vt 0.0118171 0.0713628
f 88/148/86 98/122/96 87/149/85

vt 0.253716 0.00800998
vt 0.252032 0.0721013
vt 0.0119093 0.00817392
f 91/150/89 98/151/96 88/152/86

f 95/120/93 98/122/96 91/121/89

f 91/121/89 93/123/91 95/120/93

f 59/46/49 60/47/50 80/50/78

v 0.0268746 0.0495829 0.0851957
vn -0.585136 -0.374097 0.719491
f 59/46/49 80/50/78 100/51/98

v 0.0368527 0.0472618 0.0673051
vn -0.302893 -0.637346 -0.708552
f 100/51/98 80/50/78 101/49/99

f 101/49/99 80/50/78 57/44/48

v 0.0658857 0.0454172 0.0935571
vn 0.0764893 -0.880767 0.467331
f 102/48/100 101/49/99 57/44/48

v 0.0299185 0.0325507 0.0737769
vn 0.848883 -0.0229263 -0.528083
f 102/52/100 103/53/101 101/55/99

vn -0.236248 -0.203332 0.95018
f 102/52/100 100/54/98 103/53/102

f 59/46/49 100/51/98 102/48/100

f 58/45/47 59/46/49 102/48/100

f 58/45/47 102/48/100 57/44/48

v 0.0126016 0.0350625 0.0712989
vn -0.168228 -0.209507 0.963227
f 103/53/102 100/54/98 104/56/103

vn -0.69465 0.460027 -0.553025
f 100/59/98 101/57/99 104/58/104

v 0.0249148 0.0334931 0.0554758
vn -0.797172 -0.0873205 -0.597404
f 104/58/104 101/57/99 105/56/105

vn 0.963053 -0.0445697 -0.265599
f 101/55/99 103/53/101 105/56/106

v 0.0380175 0.00876262 0.06045
vn 0.559744 0.654424 -0.508347
f 105/56/106 103/53/101 106/60/107

v 0.051408 0.0222936 0.0837322
vn -0.106816 0.991458 0.074844
f 107/61/108 106/60/107 103/53/101

v 0.119683 0.00988059 0.077933
vn 0.242493 0.863305 -0.442607
f 107/61/108 108/64/109 106/60/107

v 0.1022 0.0305817 0.110549
vn 0.0796753 0.987507 0.135944
f 109/63/110 108/64/109 107/61/108

v 0.148616 0.00937267 0.129731
vn 0.313321 0.915136 0.253686
f 110/65/111 108/64/109 109/63/110

v 0.0886187 0.00887644 0.133801
vn -0.0014038 -0.999999 -0.000945492
vn 0.0114984 -0.999867 -0.0115778
vn 0.00732726 -0.999877 -0.0138973
f 111/67/112 108/66/113 110/68/114

vn -0.281016 -0.942679 -0.179961
f 111/67/112 106/69/115 108/66/113

v 0.0260909 0.00943785 0.0776922
vn -0.553235 -0.748706 -0.365199
f 111/67/112 112/70/116 106/69/115

vn -0.284522 0.751006 0.59585
vn -0.325597 0.384139 0.863958
f 111/62/117 107/61/108 112/60/118

f 111/62/117 109/63/110 107/61/108

f 111/62/117 110/65/111 109/63/110

f 107/61/108 103/53/102 112/60/118

f 103/53/102 104/56/103 112/60/118

f 104/58/104 105/56/105 112/71/116

f 105/56/105 106/60/115 112/71/116

f 47/39/36 56/43/45 46/38/35

f 43/34/32 46/38/35 42/35/31

f 43/34/32 45/37/34 46/38/35

f 32/22/21 33/23/22 34/42/23

g Mesh9 Geoset_0_1 Model

v 0.299355 0.0308663 0.0470799
vt 0.149804 0.583734
vn 0.247925 0.962449 -0.110567
v 0.255762 0.0411572 0.0457531
vn 0.0715073 0.176329 -0.981731
v 0.294913 0.0454788 0.0530484
vn 0.123673 0.407209 -0.904923
f 113/153/119 114/37/120 115/34/121

v 0.277493 0.00856227 0.0482167
vt 0.181094 0.598374
vn -0.283504 0.230445 -0.930871
f 113/153/119 116/154/122 114/37/120

v 0.309256 0.0085989 0.0240082
vt 0.185232 0.154499
vn -0.270112 0.548333 -0.791436
vt 0.296929 0.220654
f 117/155/123 116/60/122 113/156/119

v 0.284563 0.00857052 0.0642861
vn -0.457138 -0.864694 0.208154
vn -0.456379 -0.866733 0.201224
vn 0.000739713 -1 -7.82842e-005
f 118/70/124 116/69/125 117/66/126

vn -0.791142 -0.494536 0.3599
vt 0.174063 0.640909
f 114/37/127 116/154/125 118/157/124

v 0.268504 0.0411581 0.0728884
vn -0.790351 -0.487445 0.371138
f 119/36/128 114/37/127 118/157/124

vn 0.641331 -0.00154055 0.767263
vn 0.355674 0.411578 0.839107
f 113/153/119 119/36/129 118/157/130

vn 0.609147 -0.134075 0.781642
f 113/153/119 115/34/131 119/36/129

v 0.323614 0.00860162 0.0650043
vt 0.185248 0.154499
vn 0.265962 0.632093 0.727821
f 120/158/132 113/156/119 118/60/130

v 0.328921 0.0340084 0.0384532
vn 0.219089 0.966774 -0.131711
f 120/158/132 121/63/133 113/156/119

v 0.359906 0.00861213 0.025442
vt 0.00952906 0.154499
vn 0.644914 0.483672 0.591732
f 121/63/133 120/158/132 122/159/134

vt 0.0171186 0.322635
vn 0.000531184 -1 -0.000119673
vn 0.000261931 -1 -2.53775e-005
f 120/160/135 117/66/126 122/68/136

f 120/160/135 118/70/124 117/66/126

vn 0.024706 0.479543 -0.877171
f 122/159/137 117/155/123 121/63/133

f 121/63/133 117/155/123 113/156/119

g Mesh10 Geoset_0_1 Model

v 0.299355 0.0308662 -0.0791814
vn 0.247927 0.962448 0.110568
v 0.294913 0.0454788 -0.0851498
vn 0.123674 0.407206 0.904924
v 0.255762 0.0411572 -0.0778545
vn 0.0715083 0.176327 0.981731
f 123/153/138 124/34/139 125/37/140

v 0.268504 0.0411581 -0.10499
vn 0.641331 -0.00153797 -0.767263
vn 0.609147 -0.134071 -0.781642
f 123/153/138 126/36/141 124/34/142

v 0.284563 0.00857043 -0.0963876
vn 0.355673 0.411578 -0.839107
f 123/153/138 127/157/143 126/36/141

v 0.323614 0.00860147 -0.0971058
vn 0.265963 0.632093 -0.727821
f 128/158/144 127/60/143 123/156/138

v 0.309256 0.00859875 -0.0561097
vn 0.000738549 -1 7.79284e-005
vn -0.457139 -0.864694 -0.208154
vn 0.000530324 -1 0.000119413
f 129/66/145 127/70/146 128/160/147

v 0.277493 0.00856219 -0.0803182
vn -0.456381 -0.866733 -0.201224
f 129/66/145 130/69/148 127/70/146

vn -0.270111 0.548332 0.791437
vn -0.283503 0.230444 0.930871
f 129/155/149 123/156/138 130/60/150

v 0.328921 0.0340082 -0.0705547
vn 0.21909 0.966774 0.131712
f 131/63/151 123/156/138 129/155/149

f 131/63/151 128/158/144 123/156/138

v 0.359906 0.00861198 -0.0575435
vn 0.644916 0.483671 -0.591732
f 131/63/151 132/159/152 128/158/144

vn 0.0247063 0.479542 0.877171
f 132/159/153 131/63/151 129/155/149

vn 0.000261948 -1 2.54243e-005
f 129/66/145 128/160/147 132/68/154

f 123/153/138 125/37/140 130/154/150

vn -0.791143 -0.494536 -0.359899
f 125/37/155 127/157/146 130/154/148

vn -0.790351 -0.487444 -0.371138
f 126/36/156 127/157/146 125/37/155

g Mesh11 Geoset_0_1 Model

v 0.459958 0.0538385 -0.0157182
vn 0.475744 -0.283979 0.832481
v 0.446208 0.0672759 -0.00327676
v 0.440308 0.0483449 -0.00636294
f 133/12/157 134/9/157 135/11/157

g Mesh12 Geoset_0_1 Model

vn 0.467304 -0.646843 0.602678
v 0.459958 0.0538018 -0.0157418
f 135/11/158 22/10/158 136/12/158

