# Alias OBJ Model File
# Exported from SketchUp, (c) 2000-2012 Trimble Navigation Limited
# File units = meters

mtllib Globular.mtl

g Mesh1 topiary Plant_Potted_Topiary1 Group1 Potted_Topiary1 Model

usemtl _108
v -0.179529 0.320436 0.115137
vt -2.12931 5.422
vn 0.431481 -0.867044 -0.249116
v -0.206758 0.320436 0.0135159
vt -1.4705 5.422
vn 0.498231 -0.867044 6.34748e-016
v -0.00351586 0.374894 0.0135159
vt -1.79991 6.69779
vn -2.48155e-017 -1 4.34294e-017
f 1/1/1 2/2/2 3/3/3

v -0.308379 0.171652 0.189529
vt -2.37046 9.70994
vn 0.749141 -0.501714 -0.432517
vt -1.4705 11.0053
vt -2.12931 11.0053
f 4/4/4 2/5/2 1/6/1

v -0.355541 0.171652 0.0135159
vt -1.22936 9.70994
vn 0.865033 -0.501714 1.13405e-015
f 2/5/2 4/4/4 5/7/5

v -0.355541 -0.0315899 0.216758
vt -2.45872 11.0782
vn 0.866025 2.22611e-016 -0.5
vt -1.22936 12.3929
vn 0.865033 -0.501714 1.03096e-015
vt -2.37046 12.3929
f 6/8/6 5/9/7 4/10/4

v -0.41 -0.0315899 0.0135159
vt -1.1411 11.0782
vn 1 2.52293e-016 1.24637e-015
f 5/9/7 6/8/6 7/11/8

v -0.308379 -0.234832 0.189529
vt -2.37046 9.43339
vn 0.749141 0.501714 -0.432517
vt -1.1411 10.7481
vn 1 2.67134e-016 1.24637e-015
vt -2.45872 10.7481
vn 0.866025 2.52293e-016 -0.5
f 8/12/9 7/13/10 6/14/11

v -0.355541 -0.234832 0.0135159
vt -1.22936 9.43339
vn 0.865033 0.501714 1.34025e-015
f 7/13/10 8/12/9 9/15/12

vt -2.37046 6.50598
v -0.206758 -0.383615 0.0135159
vt -1.4705 5.21061
vn 0.498231 0.867044 8.12477e-016
vt -1.22936 6.50598
f 8/16/9 10/17/13 9/18/12

v -0.179529 -0.383615 0.115137
vt -2.12931 5.21061
vn 0.431481 0.867044 -0.249116
f 10/17/13 8/16/9 11/19/14

v -0.179529 -0.234832 0.318379
vt -3.68808 7.4214
vn 0.432517 0.501714 -0.749141
vt -2.78813 6.12603
vt -2.54698 7.4214
f 12/20/15 11/21/14 8/22/9

v -0.105137 -0.383615 0.189529
vt -3.44694 6.12603
vn 0.249116 0.867044 -0.431481
f 11/21/14 12/20/15 13/23/16

vt -3.02927 8.67188
v -0.00351586 -0.383615 0.216758
vt -3.92922 7.37651
vn 7.10918e-016 0.867044 -0.498231
vt -3.27041 7.37651
f 12/24/15 14/25/17 13/26/16

v -0.00351586 -0.234832 0.365541
vt -4.17036 8.67188
vn 1.34025e-015 0.501714 -0.865033
f 14/25/17 12/24/15 15/27/18

v -0.206758 -0.0315899 0.365541
vt -2.941 11.5292
vn 0.5 1.78089e-016 -0.866025
vt -4.17036 10.2145
vn 1.23715e-015 0.501714 -0.865033
vt -3.02927 10.2145
f 16/28/19 15/29/20 12/30/15

v -0.00351586 -0.0315899 0.42
vt -4.25863 11.5292
vn 1.66182e-015 1.78089e-016 -1
f 15/29/20 16/28/19 17/31/21

v -0.179529 0.171652 0.318379
vt -3.02927 11.6117
vn 0.432517 -0.501714 -0.749141
vt -4.25863 10.2971
vt -2.941 10.2971
vn 0.5 1.63248e-016 -0.866025
f 18/32/22 17/33/21 16/34/23

v -0.00351586 0.171652 0.365541
vt -4.17036 11.6117
vn 1.44334e-015 -0.501714 -0.865033
f 17/33/21 18/32/22 19/35/24

vt -3.02927 7.54404
v -0.00351586 0.320436 0.216758
vt -3.92922 8.83941
vn 7.36308e-016 -0.867044 -0.498231
vt -4.17036 7.54404
f 18/36/22 20/37/25 19/38/24

v -0.105137 0.320436 0.189529
vt -3.27041 8.83941
vn 0.249116 -0.867044 -0.431481
f 20/37/25 18/36/22 21/39/26

vt -3.68808 8.79452
vt -2.78813 10.0899
vt -3.44694 10.0899
f 18/40/22 1/41/1 21/42/26

vt -2.54698 8.79452
f 1/41/1 18/40/22 4/43/4

vt -3.77634 10.7481
vt -2.54698 12.0627
vt -3.68808 12.0627
f 16/44/23 4/45/4 18/46/22

f 4/45/4 16/44/23 6/14/6

vt -3.68808 9.76354
vn 0.866025 2.37452e-016 -0.5
vt -3.77634 11.0782
vn 0.5 1.9293e-016 -0.866025
f 12/47/15 6/8/27 16/48/28

vt -2.54698 9.76354
f 6/8/27 12/47/15 8/49/9

vt -3.44694 4.15233
vt -2.78813 4.15233
vt -3.11753 5.42811
vn -2.24583e-017 -1 3.7911e-017
f 21/50/26 1/51/1 3/52/29

vt -3.92922 2.41791
vn 7.10918e-016 -0.867044 -0.498231
vt -3.27041 2.41791
vt -3.59982 3.6937
vn -2.0058e-017 -1 4.20685e-017
f 20/53/30 21/54/26 3/55/31

v 0.0981052 0.320436 0.189529
vt -3.44694 0.683503
vn -0.249116 -0.867044 -0.431481
vt -2.78813 0.683503
vt -3.11753 1.95929
vn -2.71727e-017 -1 4.89478e-017
f 22/56/32 20/57/30 3/58/33

v 0.172497 0.171652 0.318379
vt -3.68808 6.29356
vn -0.432517 -0.501714 -0.749141
vt -2.78813 7.58893
vt -3.44694 7.58893
f 23/59/34 20/60/30 22/61/32

vt -2.54698 6.29356
vn 1.49489e-015 -0.501714 -0.865033
f 20/60/30 23/59/34 19/62/35

v 0.199726 -0.0315899 0.365541
vt -3.77634 9.84608
vn -0.5 2.22611e-016 -0.866025
vt -2.54698 11.1607
vt -3.68808 11.1607
f 24/63/36 19/64/24 23/65/34

vt -2.45872 9.84608
f 19/64/24 24/63/36 17/66/21

vt -3.77634 11.9802
vt -2.54698 10.6655
vt -2.45872 11.9802
f 24/67/36 15/68/20 17/69/21

v 0.172497 -0.234832 0.318379
vt -3.68808 10.6655
vn -0.432517 0.501714 -0.749141
f 15/68/20 24/67/36 25/70/37

v 0.34851 -0.0315899 0.216758
vt -2.45872 12.3103
vn -0.866025 2.81974e-016 -0.5
vt -1.22936 10.9957
vt -1.1411 12.3103
vn -0.5 2.07771e-016 -0.866025
f 26/71/38 25/72/37 24/73/39

v 0.301347 -0.234832 0.189529
vt -2.37046 10.9957
vn -0.749141 0.501714 -0.432517
f 25/72/37 26/71/38 27/74/40

vt 0.658812 12.4312
v 0.34851 -0.234832 0.0135159
vt -0.570548 11.1165
vn -0.865033 0.501714 -8.76314e-016
vt 0.570548 11.1165
f 26/75/38 28/76/41 27/77/40

v 0.402968 -0.0315899 0.0135159
vt -0.658812 12.4312
vn -1 3.26497e-016 -1.03864e-015
f 28/76/41 26/75/38 29/78/42

vt 0.658812 9.39509
vn -0.866025 2.96815e-016 -0.5
v 0.34851 0.171652 0.0135159
vt -0.570548 10.7098
vn -0.865033 -0.501714 -7.73219e-016
vt -0.658812 9.39509
f 26/79/43 30/80/44 29/81/42

v 0.301347 0.171652 0.189529
vt 0.570548 10.7098
vn -0.749141 -0.501714 -0.432517
f 30/80/44 26/79/43 31/82/45

vt -1.1411 9.51593
vt -2.37046 10.8306
vt -2.45872 9.51593
f 24/83/36 31/84/45 26/85/43

vt -1.22936 10.8306
f 31/84/45 24/83/36 23/86/34

vt -1.22936 5.37815
v 0.172497 0.320436 0.115137
vt -2.12931 6.67352
vn -0.431481 -0.867044 -0.249116
vt -2.37046 5.37815
f 23/87/34 32/88/46 31/89/45

vt -1.4705 6.67352
f 32/88/46 23/87/34 22/90/32

vt -1.4705 -0.586175
vt -1.79991 0.689609
vn -1.33394e-017 -1 4.65044e-017
vt -2.12931 -0.586175
f 22/91/32 3/92/47 32/93/46

vt 0.329406 -1.05091
vt -1.61487e-015 0.224875
vn -9.89973e-018 -1 5.00618e-017
v 0.199726 0.320436 0.0135159
vt -0.329406 -1.05091
vn -0.498231 -0.867044 -6.09358e-016
f 32/94/46 3/95/48 33/96/49

vt 2.12931 -0.586175
vn -0.498231 -0.867044 -5.58578e-016
vt 1.79991 0.689609
vn -2.9573e-017 -1 4.47904e-017
v 0.172497 0.320436 -0.0881052
vt 1.4705 -0.586175
vn -0.431481 -0.867044 0.249116
f 33/97/50 3/98/51 34/99/52

vt 3.11753 1.95929
vn -3.02162e-017 -1 3.40751e-017
v 0.0981052 0.320436 -0.162497
vt 2.78813 0.683503
vn -0.249116 -0.867044 0.431481
vt 3.44694 0.683503
f 3/100/53 35/101/54 34/102/52

vt 3.59982 3.6937
vn -2.5094e-017 -1 4.77477e-017
v -0.00351586 0.320436 -0.189726
vt 3.27041 2.41791
vn -6.09358e-016 -0.867044 0.498231
vt 3.92922 2.41791
f 3/103/55 36/104/56 35/105/54

vt 3.11753 5.42811
vn -2.64549e-017 -1 4.29901e-017
v -0.105137 0.320436 -0.162497
vt 2.78813 4.15233
vn 0.249116 -0.867044 0.431481
vt 3.44694 4.15233
f 3/106/57 37/107/58 36/108/56

vt 1.79991 6.69779
vn -2.89299e-017 -1 5.55056e-017
v -0.179529 0.320436 -0.0881052
vt 1.4705 5.422
vn 0.431481 -0.867044 0.249116
vt 2.12931 5.422
f 3/109/59 38/110/60 37/111/58

vt 2.26082e-015 7.16252
vn -1.91794e-017 -1 3.87896e-017
vt -0.329406 5.88674
vn 0.498231 -0.867044 6.09358e-016
vt 0.329406 5.88674
f 3/112/61 2/113/62 38/114/60

vt -0.570548 10.045
vt 0.329406 11.3404
vt -0.329406 11.3404
f 5/115/7 38/116/60 2/117/62

v -0.308379 0.171652 -0.162497
vt 0.570548 10.045
vn 0.749141 -0.501714 0.432517
f 38/116/60 5/115/7 39/118/63

vt -0.570548 12.5137
v -0.355541 -0.0315899 -0.189726
vt 0.658812 11.199
vn 0.866025 3.11656e-016 0.5
vt 0.570548 12.5137
f 5/119/7 40/120/64 39/121/63

vt -0.658812 11.199
vn 1 2.52293e-016 1.35023e-015
f 40/120/64 5/119/7 7/122/65

vt -0.570548 9.31255
vn 0.865033 0.501714 1.39179e-015
vt 0.658812 10.6272
vt -0.658812 10.6272
f 9/123/66 40/124/64 7/125/65

v -0.308379 -0.234832 -0.162497
vt 0.570548 9.31255
vn 0.749141 0.501714 0.432517
f 40/124/64 9/123/66 41/126/67

vt -0.570548 6.17092
v -0.179529 -0.383615 -0.0881052
vt 0.329406 4.87555
vn 0.431481 0.867044 0.249116
vt 0.570548 6.17092
f 9/127/66 42/128/68 41/129/67

vt -0.329406 4.87555
f 42/128/68 9/127/66 10/130/13

v -0.00351586 -0.438074 0.0135159
vt 8.07435e-016 -1.13596
vn 3.06239e-017 1 -9.36582e-018
vt 0.329406 0.139823
vt -0.329406 0.139823
f 43/131/69 42/132/68 10/133/13

vt 1.79991 -0.671227
vn 3.11063e-017 1 -1.32941e-018
v -0.105137 -0.383615 -0.162497
vt 2.12931 0.604557
vn 0.249116 0.867044 0.431481
vt 1.4705 0.604557
f 43/134/70 44/135/71 42/136/68

vt 3.11753 0.598451
vn 2.07127e-017 1 4.67137e-018
v -0.00351586 -0.383615 -0.189726
vt 3.44694 1.87423
vn -6.09358e-016 0.867044 0.498231
vt 2.78813 1.87423
f 43/137/72 45/138/73 44/139/71

vt 3.59982 2.33286
vn 3.24672e-017 1 3.42813e-018
v 0.0981052 -0.383615 -0.162497
vt 3.92922 3.60865
vn -0.249116 0.867044 0.431481
vt 3.27041 3.60865
f 43/140/74 46/141/75 45/142/73

v 0.172497 -0.383615 -0.0881052
vt 3.44694 5.34306
vn -0.431481 0.867044 0.249116
vt 2.78813 5.34306
vt 3.11753 4.06727
vn 2.79882e-017 1 4.70826e-019
f 47/143/76 46/144/75 43/145/77

v 0.301347 -0.234832 -0.162497
vt 3.68808 9.92236
vn -0.749141 0.501714 0.432517
vt 2.78813 8.62699
vt 3.44694 8.62699
f 48/146/78 46/147/75 47/148/76

v 0.172497 -0.234832 -0.291347
vt 2.54698 9.92236
vn -0.432517 0.501714 0.749141
f 46/147/75 48/146/78 49/149/79

v 0.34851 -0.0315899 -0.189726
vt 3.77634 11.9802
vn -0.866025 2.67134e-016 0.5
vt 2.54698 10.6655
vt 3.68808 10.6655
f 50/150/80 49/151/79 48/152/78

v 0.199726 -0.0315899 -0.33851
vt 2.45872 11.9802
vn -0.5 2.67134e-016 0.866025
f 49/151/79 50/150/80 51/153/81

v 0.301347 0.171652 -0.162497
vt 3.68808 11.1607
vn -0.749141 -0.501714 0.432517
vt 2.45872 9.84608
vn -0.5 2.81974e-016 0.866025
vt 3.77634 9.84608
f 52/154/82 51/155/83 50/156/80

v 0.172497 0.171652 -0.291347
vt 2.54698 11.1607
vn -0.432517 -0.501714 0.749141
f 51/155/83 52/154/82 53/157/84

vt 3.44694 7.58893
vt 2.54698 6.29356
vt 3.68808 6.29356
f 34/158/52 53/159/84 52/160/82

vt 2.78813 7.58893
f 53/159/84 34/158/52 35/161/54

vt 3.27041 8.83941
vt 4.17036 7.54404
vt 3.92922 8.83941
f 36/162/56 53/163/84 35/164/54

v -0.00351586 0.171652 -0.33851
vt 3.02927 7.54404
vn -1.1856e-015 -0.501714 0.865033
f 53/163/84 36/162/56 54/165/85

vt 3.44694 10.0899
v -0.179529 0.171652 -0.291347
vt 2.54698 8.79452
vn 0.432517 -0.501714 0.749141
vt 3.68808 8.79452
vn -1.08251e-015 -0.501714 0.865033
f 36/166/56 55/167/86 54/168/87

vt 2.78813 10.0899
f 55/167/86 36/166/56 37/169/58

vt 1.4705 11.0053
vt 2.37046 9.70994
vt 2.12931 11.0053
f 38/170/60 55/171/86 37/172/58

vt 1.22936 9.70994
f 55/171/86 38/170/60 39/173/63

vt 1.22936 12.3929
v -0.206758 -0.0315899 -0.33851
vt 2.45872 11.0782
vn 0.5 3.11656e-016 0.866025
vt 2.37046 12.3929
f 39/174/63 56/175/88 55/176/86

vt 1.1411 11.0782
f 56/175/88 39/174/63 40/177/64

vt 1.22936 9.43339
vt 2.45872 10.7481
vt 1.1411 10.7481
f 41/178/67 56/179/88 40/180/64

v -0.179529 -0.234832 -0.291347
vt 2.37046 9.43339
vn 0.432517 0.501714 0.749141
f 56/179/88 41/178/67 57/181/89

vt 1.4705 5.21061
vt 2.37046 6.50598
vt 1.22936 6.50598
f 42/182/68 57/183/89 41/184/67

vt 2.12931 5.21061
f 57/183/89 42/182/68 44/185/71

vt 3.44694 6.12603
vt 2.54698 7.4214
vt 2.78813 6.12603
f 45/186/73 57/187/89 44/188/71

v -0.00351586 -0.234832 -0.33851
vt 3.68808 7.4214
vn -1.03096e-015 0.501714 0.865033
f 57/187/89 45/186/73 58/189/90

vt 3.27041 7.37651
vt 4.17036 8.67188
vt 3.02927 8.67188
f 45/190/73 49/191/79 58/192/90

vt 3.92922 7.37651
f 49/191/79 45/190/73 46/193/75

vt 4.17036 10.2145
v -0.00351586 -0.0315899 -0.392968
vt 2.941 11.5292
vn -1.24637e-015 2.81974e-016 1
vt 3.02927 10.2145
f 49/194/79 59/195/91 58/196/90

vt 4.25863 11.5292
f 59/195/91 49/194/79 51/197/83

vt 4.17036 11.6117
vt 2.941 10.2971
vt 4.25863 10.2971
f 53/198/84 59/199/91 51/200/83

vt 3.02927 11.6117
f 59/199/91 53/198/84 54/201/85

vt 2.54698 12.0627
vt 3.77634 10.7481
vn -1.19443e-015 2.81974e-016 1
vt 3.68808 12.0627
f 55/202/86 59/203/92 54/204/87

f 59/203/92 55/202/86 56/179/88

vt 3.68808 9.76354
vt 3.77634 11.0782
f 56/175/88 58/205/90 59/206/92

vt 2.54698 9.76354
f 58/205/90 56/175/88 57/207/89

vt 1.22936 5.37815
vt 2.12931 6.67352
vn -0.498231 -0.867044 -5.83968e-016
vt 1.4705 6.67352
f 52/208/82 33/209/93 34/210/52

vt 2.37046 5.37815
vn -0.865033 -0.501714 -8.24766e-016
f 33/209/93 52/208/82 30/211/94

vt 1.1411 9.51593
vt 2.37046 10.8306
vt 1.22936 10.8306
f 50/212/80 30/213/94 52/214/82

vt 2.45872 9.51593
f 30/213/94 50/212/80 29/215/42

vt 1.22936 10.9957
vt 2.45872 12.3103
vn -1 3.26497e-016 -9.86706e-016
vt 1.1411 12.3103
f 48/216/78 29/217/95 50/218/80

vt 2.37046 10.9957
f 29/217/95 48/216/78 28/219/41

vt 1.22936 10.8378
v 0.199726 -0.383615 0.0135159
vt 2.12931 9.5424
vn -0.498231 0.867044 -4.82408e-016
vt 2.37046 10.8378
f 48/220/78 60/221/96 28/222/41

vt 1.4705 9.5424
f 60/221/96 48/220/78 47/223/76

vt 2.12931 6.61274
vn -0.498231 0.867044 -4.31629e-016
vt 1.4705 6.61274
vt 1.79991 5.33695
vn 2.43877e-017 1 -5.76536e-018
f 60/224/97 47/225/76 43/226/98

v 0.172497 -0.383615 0.115137
vt 0.329406 7.07747
vn -0.431481 0.867044 -0.249116
vt -0.329406 7.07747
vn -0.498231 0.867044 -4.57019e-016
vt -8.07435e-016 5.80169
vn 3.09455e-017 1 -4.00821e-018
f 61/227/99 60/228/100 43/229/101

vt 0.329406 9.87747
vt -0.570548 11.1728
vn -0.865033 0.501714 -9.27862e-016
vt -0.329406 9.87747
f 61/230/99 28/231/102 60/232/96

vt 0.570548 11.1728
f 28/231/102 61/230/99 27/233/40

v 0.0981052 -0.383615 0.189529
vt -1.4705 9.5424
vn -0.249116 0.867044 -0.431481
vt -2.37046 10.8378
vt -2.12931 9.5424
f 62/234/103 27/235/40 61/236/99

vt -1.22936 10.8378
f 27/235/40 62/234/103 25/237/37

vt -3.44694 8.62699
vt -2.54698 9.92236
vt -3.68808 9.92236
f 62/238/103 15/239/20 25/240/37

vt -2.78813 8.62699
f 15/239/20 62/238/103 14/241/17

vt -3.44694 5.34306
vt -3.11753 4.06727
vn 3.46206e-017 1 -1.44449e-017
vt -2.78813 5.34306
vn 6.60138e-016 0.867044 -0.498231
f 62/242/103 43/243/104 14/244/105

vt -1.4705 6.61274
vt -2.12931 6.61274
vt -1.79991 5.33695
vn 3.18241e-017 1 -7.28709e-018
f 62/245/103 61/246/99 43/247/106

vt -3.92922 3.60865
vt -3.59982 2.33286
vn 3.36674e-017 1 5.50686e-018
vt -3.27041 3.60865
f 14/248/17 43/249/107 13/250/16

vt -3.44694 1.87423
vt -3.11753 0.598451
vn 3.93466e-017 1 1.05429e-017
vt -2.78813 1.87423
f 13/251/16 43/252/108 11/253/14

vt -1.79991 -0.671227
vn 2.02734e-017 1 6.31081e-018
vt -1.4705 0.604557
vn 0.498231 0.867044 7.87088e-016
vt -2.12931 0.604557
f 43/254/109 10/255/110 11/256/14

vt -0.570548 5.04308
vt 0.329406 6.33845
vt -0.329406 6.33845
f 30/257/94 32/258/46 33/259/93

vt 0.570548 5.04308
f 32/258/46 30/257/94 31/260/45

g Mesh2 topiary Plant_Potted_Topiary1 Group1 Potted_Topiary1 Model

v 0.0293056 -0.42782 0.0636991
vt -2.92037 2.56632
vn 0 -1 -0
v -0.00465961 -0.42782 0.0551473
vt -2.76765 2.4089
v 0.0199739 -0.42782 0.0300064
vt -2.70843 2.62121
f 63/261/111 64/262/111 65/263/111

g Mesh3 topiary Plant_Potted_Topiary1 Group1 Potted_Topiary1 Model

v -0.0160882 -0.438074 0.0207745
vt 2.54545 2.45455
vn 0 1 -0
v 0.00905648 -0.438074 0.00625722
vt 2.54545 2.63636
v -0.0107745 -0.438074 0.00094352
vt 2.45455 2.54545
f 66/264/112 67/265/112 68/266/112

v 0.00374278 -0.438074 0.0260882
vt 2.63636 2.54545
f 67/265/112 66/264/112 69/267/112

