# Alias OBJ Model File
# Exported from SketchUp, (c) 2000-2012 Trimble Navigation Limited
# File units = inches

mtllib fireball.mtl

g Mesh1 Component_1_1 Group3 Group2 Group1 Model

usemtl Fire_Ball
v 18.9832 14.1768 53.0602
vt 1 1
vn -0.533865 -0.777419 0.332579
v -17.9362 -4.84029 -50.6573
vt 8.99421e-017 3.38325e-053
v 44.0017 -29.1566 -8.07322
vt 1 2.96478e-029
f 1/1/1 2/2/1 3/3/1

v -42.9548 38.4931 10.4761
vt 8.99421e-017 1
f 2/2/1 1/1/1 4/4/1

g Mesh2 Component_1_2 Group3 Group2 Group1 Model

v 7.7672 55.0994 19.4627
vn 0.784025 -0.307802 0.539039
v -9.3896 -49.65 -15.3969
v 32.7857 11.766 -41.6707
f 5/1/2 6/2/2 7/3/2

v -34.4081 -6.31665 45.7364
f 6/2/2 5/1/2 8/4/2

g Mesh3 Component_1_3 Group3 Group2 Group1 Model

v -17.9555 53.779 9.87179
vn 0.931889 0.332069 0.145989
v 21.0373 -50.1764 -2.57179
v 7.063 10.4456 -51.2616
f 9/1/3 10/2/3 11/3/3

v -3.98125 -6.843 58.5616
f 10/2/3 9/1/3 12/4/3

g Mesh4 Component_1_4 Group3 Group2 Group1 Model

v -48.6151 13.2091 26.0818
vn -0.17689 0.767367 -0.616327
v 50.0227 -3.89085 -23.5184
v -23.5965 -30.1243 -35.0515
f 13/1/4 14/2/4 15/3/4

v 25.0042 39.4425 37.615
f 14/2/4 13/1/4 16/4/4

g Mesh5 Component_1_5 Group4 Group2 Group1 Model

v 5.5757 -42.7059 40.0801
vn 0.31669 -0.548524 -0.77384
v -14.1869 43.0265 -28.7777
v 47.751 18.7102 13.8063
f 17/1/5 18/2/5 19/3/5

v -56.3623 -18.3895 -2.50401
f 18/2/5 17/1/5 20/4/5

g Mesh6 Component_1_6 Group4 Group2 Group1 Model

v -37.1108 -10.2523 47.4201
v 30.0831 7.83035 -39.987
v 5.06451 51.1637 21.1464
f 21/1/2 22/2/2 23/3/2

v -12.0923 -53.5857 -13.7133
f 22/2/2 21/1/2 24/4/2

g Mesh7 Component_1_7 Group4 Group2 Group1 Model

v -52.9933 -8.92463 25.0287
vn 0.330455 0.170216 0.928346
v 50.6696 4.65584 -14.3613
v -10.8179 52.4914 -1.245
f 25/1/6 26/2/6 27/3/6

v 8.49429 -56.7602 11.9124
f 26/2/6 25/1/6 28/4/6

g Mesh8 Component_1_8 Group4 Group2 Group1 Model

v -38.3191 -37.2947 -17.7322
vn -0.778323 0.605514 0.16603
v 29.9623 37.5685 29.3334
v 3.85628 24.1214 -44.0059
f 29/1/7 30/2/7 31/3/7

v -12.2131 -23.8476 55.6071
f 30/2/7 29/1/7 32/4/7

g Mesh9 Component_1_9 Group5 Group2 Group1 Model

v 46.599 -33.957 10.7825
vn -0.472586 -0.695263 -0.541545
v -43.4236 31.9333 4.7487
v 21.5265 21.938 -39.0985
f 33/1/8 34/2/8 35/3/8

v -18.3511 -23.9617 54.6297
f 34/2/8 33/1/8 36/4/8

g Mesh10 Component_1_10 Group5 Group2 Group1 Model

v 31.6096 -3.23459 52.7433
vn 0.822153 -0.126522 -0.555028
v -30.7972 -2.26541 -39.9198
v 6.53715 52.6604 2.86225
f 37/1/9 38/2/9 39/3/9

v -5.72468 -58.1604 9.96126
f 38/2/9 37/1/9 40/4/9

g Mesh11 Component_1_11 Group5 Group2 Group1 Model

v 5.64528 -8.12401 60.3153
vn 0.915519 0.402161 -0.00953393
v 0.100108 1.86488 -50.8219
v -19.4272 47.771 10.4342
f 41/1/10 42/2/10 43/3/10

v 25.1726 -54.0301 -0.940865
f 42/2/10 41/1/10 44/4/10

g Mesh12 Component_1_12 Group5 Group2 Group1 Model

v -21.8554 -44.825 33.0125
vn -0.247181 0.58109 0.775394
v 25.3982 42.8407 -17.6217
v -46.9279 11.07 -16.8685
f 45/1/11 46/2/11 47/3/11

v 50.4707 -13.0542 32.2593
f 46/2/11 45/1/11 48/4/11

g Mesh13 Component_1_13 Group6 Group2 Group1 Model

v 17.9009 37.5951 -23.5877
vn 0.0745521 -0.645152 -0.760408
v -20.4642 -44.2423 42.084
v -53.5806 8.81498 -6.17807
f 49/1/12 50/2/12 51/3/12

v 51.0174 -15.4622 24.6744
f 50/2/12 49/1/12 52/4/12

g Mesh14 Component_1_14 Group6 Group2 Group1 Model

v 31.7007 34.937 28.6785
vn -0.419196 0.671611 -0.610912
v -33.8912 -44.81 -13.9842
v -39.7808 6.15697 46.0881
f 53/1/13 54/2/13 55/3/13

v 37.5903 -16.03 -31.3938
f 54/2/13 53/1/13 56/4/13

g Mesh15 Component_1_15 Group6 Group2 Group1 Model

v 43.0141 10.7294 35.1116
vn -0.349132 0.931092 0.10571
v -47.7198 -16.5727 -24.0828
v -28.4675 -18.0507 52.5212
f 57/1/14 58/2/14 59/3/14

v 23.7618 12.2074 -41.4924
f 58/2/14 57/1/14 60/4/14

g Mesh16 Component_1_16 Group6 Group2 Group1 Model

v 48.1666 -25.5455 -3.6992
vn 0.2437 -0.0187093 0.96967
v -50.8964 19.2307 22.0615
v -23.3149 -54.3255 13.7104
f 61/1/15 62/2/15 63/3/15

v 20.5851 48.0108 4.65186
f 62/2/15 61/1/15 64/4/15

g Mesh17 Component_1_17 Group7 Group2 Group1 Model

v -47.2769 -14.5165 -25.8624
vn 0.627021 -0.0481612 -0.777512
v 38.8151 6.11551 42.2881
v 2.14884 -59.0352 16.7543
f 65/1/16 66/2/16 67/3/16

v -10.6106 50.6342 -0.328649
f 66/2/16 65/1/16 68/4/16

g Mesh18 Component_1_18 Group7 Group2 Group1 Model

v -52.1435 19.8408 15.6724
vn -0.46413 -0.824692 -0.323212
v 46.8169 -28.4826 -3.13432
v -2.71777 -24.6779 58.2892
f 69/1/17 70/2/17 71/3/17

v -2.60885 16.0361 -45.751
f 70/2/17 69/1/17 72/4/17

g Mesh19 Component_1_19 Group7 Group2 Group1 Model

v -33.3182 39.8438 14.7351
vn -0.77156 -0.54909 0.321239
v 25.2068 -53.4337 -4.13624
v 16.1075 -4.67489 57.3518
f 73/1/18 74/2/18 75/3/18

v -24.2189 -8.91503 -46.753
f 74/2/18 73/1/18 76/4/18

g Mesh20 Component_1_20 Group7 Group2 Group1 Model

v 1.4067 39.5963 -25.7965
vn -0.115181 0.6172 0.77833
v -10.1209 -48.3005 42.1981
v 50.8324 -4.92238 16.8203
f 77/1/19 78/2/19 79/3/19

v -59.5466 -3.78182 -0.418593
f 78/2/19 77/1/19 80/4/19

g Mesh21 Component_1_21 Group8 Group2 Group1 Model

v -45.3082 -11.6497 -27.0888
v 40.7838 8.98224 41.0617
v 4.11747 -56.1684 15.5279
f 81/1/16 82/2/16 83/3/16

v -8.64194 53.5009 -1.55503
f 82/2/16 81/1/16 84/4/16

g Mesh22 Component_1_22 Group8 Group2 Group1 Model

v -50.1749 22.7076 14.4461
v 48.7855 -25.6159 -4.3607
v -0.749147 -21.8111 57.0628
f 85/1/17 86/2/17 87/3/17

v -0.640218 18.9028 -46.9774
f 86/2/17 85/1/17 88/4/17

g Mesh23 Component_1_23 Group8 Group2 Group1 Model

v -31.3496 42.7105 13.5087
v 27.1754 -50.567 -5.36262
v 18.0761 -1.80816 56.1254
f 89/1/18 90/2/18 91/3/18

v -22.2503 -6.0483 -47.9793
f 90/2/18 89/1/18 92/4/18

g Mesh24 Component_1_24 Group8 Group2 Group1 Model

v 3.37533 42.463 -27.0228
v -8.15223 -45.4338 40.9717
v 52.801 -2.05565 15.5939
f 93/1/19 94/2/19 95/3/19

v -57.5779 -0.91509 -1.64498
f 94/2/19 93/1/19 96/4/19

g Mesh25 Component_1_25 Group10 Group9 Group1 Model

v 34.9062 36.75 -10.2757
vn 0 1.64816e-013 1
v -44.0938 -42.25 -10.2757
v 34.9062 -42.25 -10.2757
f 97/1/20 98/2/20 99/3/20

v -44.0938 36.75 -10.2757
f 98/2/20 97/1/20 100/4/20

g Mesh26 Component_1_26 Group10 Group9 Group1 Model

v -4.59376 36.75 -47.2757
vn 1 1.64816e-013 1.49017e-008
v -4.59376 -42.25 31.7243
v -4.59376 -42.25 -47.2757
f 101/1/21 102/2/21 103/3/21

v -4.59376 36.75 31.7243
f 102/2/21 101/1/21 104/4/21

g Mesh27 Component_1_27 Group10 Group9 Group1 Model

v -29.5245 36.75 -35.7065
vn 0.707107 1.64816e-013 -0.707107
v 26.337 -42.25 20.155
v -29.5245 -42.25 -35.7065
f 105/1/22 106/2/22 107/3/22

v 26.337 36.75 20.155
f 106/2/22 105/1/22 108/4/22

g Mesh28 Component_1_28 Group10 Group9 Group1 Model

v -32.337 36.75 17.5925
vn -0.707107 1.64816e-013 -0.707107
v 23.5245 -42.25 -38.269
v -32.337 -42.25 17.5925
f 109/1/23 110/2/23 111/3/23

v 23.5245 36.75 -38.269
f 110/2/23 109/1/23 112/4/23

g Mesh29 Component_1_29 Group11 Group9 Group1 Model

v 34.9062 -0.25 36.7868
vn 0 -1 1.28501e-012
v -44.0938 -0.25 -42.2132
v 34.9062 -0.25 -42.2132
f 113/1/24 114/2/24 115/3/24

v -44.0938 -0.25 36.7868
f 114/2/24 113/1/24 116/4/24

g Mesh30 Component_1_30 Group11 Group9 Group1 Model

v -4.59376 36.75 36.7868
vn 1 -1.49017e-008 1.64816e-013
v -4.59376 -42.25 -42.2132
v -4.59376 36.75 -42.2132
f 117/1/25 118/2/25 119/3/25

v -4.59376 -42.25 36.7868
f 118/2/25 117/1/25 120/4/25

g Mesh31 Component_1_31 Group11 Group9 Group1 Model

v -29.5245 25.1807 36.7868
vn 0.707107 0.707107 -6.27278e-013
v 26.337 -30.6807 -42.2132
v -29.5245 25.1807 -42.2132
f 121/1/26 122/2/26 123/3/26

v 26.337 -30.6807 36.7868
f 122/2/26 121/1/26 124/4/26

g Mesh32 Component_1_32 Group11 Group9 Group1 Model

v -32.337 -28.1182 36.7868
vn -0.707107 0.707107 -6.27278e-013
v 23.5245 27.7432 -42.2132
v -32.337 -28.1182 -42.2132
f 125/1/27 126/2/27 127/3/27

v 23.5245 27.7432 36.7868
f 126/2/27 125/1/27 128/4/27

g Mesh33 Component_1_33 Group12 Group9 Group1 Model

v 48.5841 -31.1143 -1.65946
vn -0.44843 -0.650774 0.612702
v -45.5295 28.8682 -6.83054
v -15.1658 -31.1143 -48.3173
f 129/1/28 130/2/28 131/3/28

v 18.2204 28.8682 39.8273
f 130/2/28 129/1/28 132/4/28

g Mesh34 Component_1_34 Group12 Group9 Group1 Model

v 49.9942 22.9556 -3.58604
vn 0.384351 -0.759271 -0.525149
v -49.1817 -28.4556 -1.84044
v -13.7557 22.9556 -50.2439
f 133/1/29 134/2/29 135/3/29

v 14.5682 -28.4556 44.8174
f 134/2/29 133/1/29 136/4/29

g Mesh35 Component_1_35 Group12 Group9 Group1 Model

v 35.224 34.3558 16.5948
vn 0.588865 -0.076719 -0.804582
v -32.1054 -44.4114 -25.1722
v -28.5259 34.3558 -30.063
f 137/1/30 138/2/30 139/3/30

v 31.6444 -44.4114 21.4856
f 138/2/30 137/1/30 140/4/30

g Mesh36 Component_1_36 Group12 Group9 Group1 Model

v 10.2422 1.80565 50.7282
vn 0.0453107 0.997053 -0.0619092
v -6.98736 -4.25516 -59.4917
v -53.5077 1.80565 4.07031
f 141/1/31 142/2/31 143/3/31

v 56.7625 -4.25516 -12.8338
f 142/2/31 141/1/31 144/4/31

g Mesh37 Component_1_37 Group13 Group9 Group1 Model

v -14.4667 -9.37495 -53.3952
vn -0.15286 -0.965926 0.208857
v 16.0434 8.70457 52.5494
v -52.267 10.9483 12.9305
f 145/1/32 146/2/32 147/3/32

v 53.8437 -11.6186 -13.7763
f 146/2/32 145/1/32 148/4/32

g Mesh38 Component_1_38 Group13 Group9 Group1 Model

v 25.3444 25.2425 -41.3134
vn -0.864688 0.0284013 -0.501505
v -24.5319 -30.7425 41.512
v -12.4559 45.5657 25.0123
f 149/1/33 150/2/33 151/3/33

v 13.2684 -51.0657 -24.8138
f 150/2/33 149/1/33 152/4/33

g Mesh39 Component_1_39 Group13 Group9 Group1 Model

v 45.1332 13.3593 -26.3942
vn -0.503339 0.703095 -0.502302
v -49.5088 -18.6889 23.5837
v 7.33287 33.6825 39.9315
f 153/1/34 154/2/34 155/3/34

v -11.7085 -39.0121 -42.742
f 154/2/34 153/1/34 156/4/34

g Mesh40 Component_1_40 Group13 Group9 Group1 Model

v 39.4178 -38.2034 -13.8519
vn 0.719515 0.66293 0.206934
v -38.1462 37.6644 12.792
v 1.61753 -17.8801 52.4738
f 157/1/35 158/2/35 159/3/35

v -0.345914 17.3412 -53.5338
f 158/2/35 157/1/35 160/4/35

g Mesh41 Component_1_41 Group14 Group9 Group1 Model

v -50.7538 -19.0784 21.1569
vn 0.0873148 -0.826659 -0.555887
v 47.1297 17.7117 -18.1789
v 24.6722 -26.1721 43.5533
f 161/1/36 162/2/36 163/3/36

v -28.2963 24.8054 -40.5753
f 162/2/36 161/1/36 164/4/36

g Mesh42 Component_1_42 Group14 Group9 Group1 Model

v -42.7557 33.4499 10.8586
vn -0.284272 -0.555492 0.781421
v 39.5682 -38.9499 -10.6601
v 32.6703 26.3562 33.255
f 165/1/37 166/2/37 167/3/37

v -35.8578 -31.8562 -33.0565
f 166/2/37 165/1/37 168/4/37

g Mesh43 Component_1_43 Group14 Group9 Group1 Model

v -34.6584 37.7349 -15.054
vn -0.262751 0.191744 0.945619
v 29.7653 -46.5678 19.941
v 40.7676 30.6412 7.34241
f 169/1/38 170/2/38 171/3/38

v -45.6607 -39.4741 -2.45537
f 170/2/38 169/1/38 172/4/38

g Mesh44 Component_1_44 Group14 Group9 Group1 Model

v -29.2051 -4.76289 -46.8799
vn 0.13927 0.977329 -0.159476
v 25.4635 3.29121 50.2204
v 46.2209 -11.8566 -24.4835
f 173/1/39 174/2/39 175/3/39

v -49.9625 10.3849 27.824
f 174/2/39 173/1/39 176/4/39

g Mesh45 Component_1_45 Group15 Group9 Group1 Model

v -50.7538 -19.0784 17.4694
v 47.1297 17.7117 -21.8664
v 24.6722 -26.1721 39.8658
f 177/1/36 178/2/36 179/3/36

v -28.2963 24.8054 -44.2628
f 178/2/36 177/1/36 180/4/36

g Mesh46 Component_1_46 Group15 Group9 Group1 Model

v -42.7557 33.4499 7.1711
v 39.5682 -38.9499 -14.3476
v 32.6703 26.3562 29.5675
f 181/1/37 182/2/37 183/3/37

v -35.8578 -31.8562 -36.744
f 182/2/37 181/1/37 184/4/37

g Mesh47 Component_1_47 Group15 Group9 Group1 Model

v -34.6584 37.7349 -18.7415
v 29.7653 -46.5678 16.2535
v 40.7676 30.6412 3.65491
f 185/1/38 186/2/38 187/3/38

v -45.6607 -39.4741 -6.14287
f 186/2/38 185/1/38 188/4/38

g Mesh48 Component_1_48 Group15 Group9 Group1 Model

v -29.2051 -4.76289 -50.5674
v 25.4635 3.29121 46.5329
v 46.2209 -11.8566 -28.171
f 189/1/39 190/2/39 191/3/39

v -49.9625 10.3849 24.1365
f 190/2/39 189/1/39 192/4/39

