# Alias OBJ Model File
# Exported from SketchUp, (c) 2000-2012 Trimble Navigation Limited
# File units = millimeters

mtllib giftBox.mtl

g Mesh1 Group1 Model

usemtl _1
v 22.1544 16.4308 22
vt 1.00173 0.00742574
vn 0 1 -0
v -22.0326 16.4308 -21.571
vt 0.00742574 0.987871
v -22.0326 16.4308 22
vt 0.00742574 0.00742574
f 1/1/1 2/2/1 3/3/1

v 22.1544 16.4308 -21.571
vt 1.00173 0.987871
f 2/2/1 1/1/1 4/4/1

usemtl M_3
vt 0.00742574 0.809792
vn 1 0 -0
v 22.1544 -19.5563 -21.571
vt 0.987871 0
vt 0.987871 0.809792
f 1/5/2 5/6/2 4/7/2

v 22.1544 -19.5563 22
vt 0.00742574 0
f 5/6/2 1/5/2 6/8/2

vt 1.00173 0.809792
vn 0 0 1
v -22.0326 -19.5563 22
vt 1.00173 0
f 1/9/3 7/8/3 6/10/3

f 7/8/3 1/9/3 3/5/3

v 22.4844 16.4308 22.33
vt 1.00916 0
f 3/3/1 8/11/1 1/1/1

v -22.3626 16.4308 22
vt 0 0.00742574
f 9/12/1 8/11/1 3/3/1

v -22.3626 16.4308 22.33
vt 0 0
f 8/11/1 9/12/1 10/13/1

vt 0 0.809792
vn -1 0 -0
v -22.3626 25.1037 -21.901
vt -0.995297 1.00495
vt -0.00742574 0.809792
f 10/14/4 11/15/4 9/16/4

v -22.3626 25.1037 22.33
vt 0 1.00495
f 11/15/4 10/14/4 12/17/4

v 22.4844 25.1037 22.33
vt 1.00916 1.00495
f 10/14/3 13/18/3 12/17/3

vt 1.00916 0.809792
f 13/18/3 10/14/3 8/19/3

v 22.4844 16.4308 22
vt 1.01658 0.809792
f 14/20/2 13/18/2 8/19/2

v 22.4844 25.1037 -21.901
vt 2.00446 1.00495
f 13/18/2 14/20/2 15/21/2

v 22.4844 16.4308 -21.901
vt 2.00446 0.809792
f 15/21/2 14/20/2 16/22/2

v 22.1544 16.4308 -21.901
vt 3.90941 0.995297
vt 3.91683 0.00742574
vt 3.91683 0.995297
f 17/23/1 14/24/1 16/25/1

vt 3.90941 0.987871
f 4/26/1 14/24/1 17/23/1

vt 3.90941 0.00742574
f 14/24/1 4/26/1 1/27/1

vt 1.00916 0.00742574
f 1/1/1 8/11/1 14/28/1

v -22.0326 16.4308 -21.901
vt 6.81807 0.995297
vt 7.81238 0.987871
vt 7.81238 0.995297
f 18/29/1 4/30/1 17/31/1

vt 6.81807 0.987871
f 4/30/1 18/29/1 2/32/1

vt 1.90594 0.995297
vt 1.90594 0.00742574
vt 1.90594 0.987871
f 18/33/1 3/34/1 2/35/1

v -22.3626 16.4308 -21.901
vt 1.89851 0.995297
f 19/36/1 3/34/1 18/33/1

vt 1.89851 0.00742574
f 3/34/1 19/36/1 9/37/1

vt -0.995297 0.809792
f 9/16/4 11/15/4 19/38/4

vt 3.01361 1.00495
vn 0 0 -1
vt 3.00619 0.809792
vt 3.01361 0.809792
f 11/39/5 18/40/5 19/41/5

vt 2.01188 0.809792
f 18/40/5 11/39/5 17/42/5

f 17/42/5 11/39/5 16/22/5

f 16/22/5 11/39/5 15/21/5

usemtl M_1
vt 0 0.985539
vt 0.999265 0
vt 0.999265 0.985539
f 11/43/1 13/44/1 15/45/1

f 13/44/1 11/43/1 12/13/1

usemtl M_3
vt -0.987871 0.809792
vt -0.00742574 0
f 2/46/4 7/47/4 3/16/4

v -22.0326 -19.5563 -21.571
vt -0.987871 0
f 7/47/4 2/46/4 20/48/4

vt -1.00173 0
f 2/16/5 5/49/5 20/47/5

vt -1.00173 0.809792
f 5/49/5 2/16/5 4/50/5

usemtl _1
vt -1.00173 0.987871
vn 0 -1 -0
vt -0.00742574 0.00742574
vt -0.00742574 0.987871
f 5/51/6 7/52/6 20/53/6

vt -1.00173 0.00742574
f 7/52/6 5/51/6 6/54/6

